# xmcd CD database file
#
# Track frame offsets:
#	150
#	18808
#	37553
#	57380
#	77150
#	97875
#	120501
#	140344
#	157350
#	174692
#	195010
#	216061
#	238957
#
# Disc length: 3460 seconds
#
# Revision: 0
# Processed by: cddbd v1.5.2PL0 Copyright (c) Steve Scherf et al.
# Submitted via: CDex 1.51
#
DISCID=a10d820d
DTITLE=John Primer - Blues On Solid Ground
DYEAR=2012
DGENRE=Blues
TTITLE0=Hiding Place
TTITLE1=Take Care Of Me
TTITLE2=Blues On Solid Ground
TTITLE3=When I Get Lonely
TTITLE4=Power Of Attorney
TTITLE5=Crazy For My Baby
TTITLE6=When I Met The Blues
TTITLE7=I Just Got Some
TTITLE8=I Want To See You Before I Go
TTITLE9=Happy Blues
TTITLE10=Rambling Blues
TTITLE11=When I Leave Home
TTITLE12=Poor Man Blues
EXTD=YEAR: 2012
EXTT0=
EXTT1=
EXTT2=
EXTT3=
EXTT4=
EXTT5=
EXTT6=
EXTT7=
EXTT8=
EXTT9=
EXTT10=
EXTT11=
EXTT12=
PLAYORDER=
